<svg xmlns="http://www.w3.org/2000/svg" xmlns:xlink="http://www.w3.org/1999/xlink" width="64" zoomAndPan="magnify" viewBox="0 0 48 48" height="64" preserveAspectRatio="xMidYMid meet" version="1.0"><defs><clipPath id="180bf8d36b"><path d="M 9.367188 11.21875 L 38.757812 11.21875 L 38.757812 35.464844 L 9.367188 35.464844 Z M 9.367188 11.21875 " clip-rule="nonzero"/></clipPath></defs><g clip-path="url(#180bf8d36b)"><path fill="#000000" d="M 32.691406 25.933594 L 32.691406 16.980469 C 32.691406 16.617188 32.21875 16.453125 31.984375 16.738281 L 21.945312 28.664062 L 21.828125 28.664062 L 21.828125 28.660156 C 18.519531 28.660156 15.886719 25.832031 16.378906 22.550781 C 16.71875 20.300781 18.546875 18.488281 20.867188 18.105469 C 22.441406 17.84375 23.925781 18.238281 25.074219 19.046875 C 25.242188 19.167969 25.488281 19.136719 25.617188 18.980469 L 29.5 14.371094 C 29.640625 14.203125 29.609375 13.953125 29.429688 13.820312 C 27.113281 12.09375 24.15625 11.136719 20.964844 11.34375 C 14.773438 11.75 9.851562 16.476562 9.402344 22.453125 C 8.875 29.484375 14.65625 35.367188 21.828125 35.367188 L 24.90625 35.367188 C 25.128906 35.367188 25.308594 35.195312 25.308594 34.984375 L 25.308594 25.933594 L 30.753906 25.933594 L 30.753906 34.886719 C 30.753906 35.25 31.222656 35.410156 31.460938 35.128906 L 38.660156 26.578125 C 38.878906 26.316406 38.691406 25.929688 38.34375 25.929688 L 32.691406 25.929688 Z M 32.691406 25.933594 " fill-opacity="1" fill-rule="nonzero"/></g></svg>