<svg xmlns="http://www.w3.org/2000/svg" xmlns:xlink="http://www.w3.org/1999/xlink" width="64" zoomAndPan="magnify" viewBox="0 0 48 48" height="64" preserveAspectRatio="xMidYMid meet" version="1.0"><defs><clipPath id="65290c88d3"><path d="M 5.191406 7.710938 L 42.660156 7.710938 L 42.660156 39.304688 L 5.191406 39.304688 Z M 5.191406 7.710938 " clip-rule="nonzero"/></clipPath></defs><g clip-path="url(#65290c88d3)"><path fill="#000000" d="M 34.929688 26.882812 L 34.929688 15.214844 C 34.929688 14.742188 34.328125 14.535156 34.027344 14.902344 L 21.226562 30.441406 L 21.078125 30.441406 L 21.078125 30.4375 C 16.859375 30.4375 13.5 26.753906 14.128906 22.472656 C 14.5625 19.542969 16.894531 17.183594 19.851562 16.683594 C 21.859375 16.34375 23.753906 16.859375 25.214844 17.910156 C 25.429688 18.066406 25.742188 18.03125 25.910156 17.824219 L 30.859375 11.820312 C 31.042969 11.597656 31 11.273438 30.773438 11.097656 C 27.816406 8.851562 24.042969 7.601562 19.980469 7.875 C 12.082031 8.402344 5.804688 14.5625 5.234375 22.347656 C 4.5625 31.507812 11.929688 39.175781 21.078125 39.175781 L 25.003906 39.175781 C 25.285156 39.175781 25.511719 38.953125 25.511719 38.675781 L 25.511719 26.882812 L 32.457031 26.882812 L 32.457031 38.550781 C 32.457031 39.023438 33.058594 39.234375 33.363281 38.867188 L 42.542969 27.722656 C 42.820312 27.386719 42.578125 26.882812 42.136719 26.882812 L 34.925781 26.882812 Z M 34.929688 26.882812 " fill-opacity="1" fill-rule="nonzero"/></g></svg>